<svg xmlns="http://www.w3.org/2000/svg" width="256" height="256" viewBox="0 0 100 100"><rect width="100" height="100" rx="20" fill="#000000"></rect><path d="M13.67 21.56L13.67 74.38L41.76 74.38L41.76 78.44L8.83 78.44L8.83 21.56L13.67 21.56ZM66.52 78.44L50.98 78.44L50.98 21.56L66.88 21.56Q73.87 21.56 79.41 24.75Q84.96 27.93 88.07 33.87Q91.17 39.80 91.17 47.38L91.17 47.38L91.17 52.62Q91.17 60.23 88.09 66.13Q85 72.03 79.39 75.23Q73.79 78.44 66.52 78.44L66.52 78.44ZM66.95 25.66L55.78 25.66L55.78 74.38L66.56 74.38Q75.55 74.38 80.98 68.42Q86.41 62.46 86.41 52.30L86.41 52.30L86.41 47.30Q86.41 37.50 81.05 31.60Q75.70 25.70 66.95 25.66L66.95 25.66Z" fill="#f8e71c"></path></svg>