<?xml version="1.0" encoding="utf-8"?>
<!-- Generator: Adobe Illustrator 26.1.0, SVG Export Plug-In . SVG Version: 6.00 Build 0)  -->
<svg version="1.1" id="Layer_1" xmlns="http://www.w3.org/2000/svg" xmlns:xlink="http://www.w3.org/1999/xlink" x="0px" y="0px"
	 viewBox="0 0 828.1 592" style="enable-background:new 0 0 828.1 592;" xml:space="preserve">
<style type="text/css">
	.st0{fill:#2E3192;}
	.st1{fill:#1B1464;}
	.st2{fill:#0000FF;}
	.st3{fill:#2E3192;stroke:#2E3192;stroke-miterlimit:10;}
	.st4{font-family:'Baskerville-Bold';}
	.st5{font-size:53.0301px;}
	.st6{font-family:'AvenirNext-Regular';}
	.st7{font-size:21px;}
	.st8{fill:none;}
</style>
<g>
	<g>
		<rect x="33.5" y="38.5" class="st0" width="312" height="433"/>
		<path class="st0" d="M345,39v432H34V39H345 M346,38H33v434h313V38L346,38z"/>
	</g>
	<g>
		<rect x="190.5" y="127.5" class="st1" width="312" height="433"/>
		<path class="st1" d="M502,128v432H191V128H502 M503,127H190v434h313V127L503,127z"/>
	</g>
	<g>
		<g>
			<rect x="441.5" y="92.5" class="st2" width="94" height="2"/>
			<path class="st1" d="M535,93v1h-93v-1H535 M536,92h-95v3h95V92L536,92z"/>
		</g>
		<g>
			<rect x="533.5" y="92.5" class="st2" width="2" height="94"/>
			<path class="st1" d="M535,93v93h-1V93H535 M536,92h-3v95h3V92L536,92z"/>
		</g>
	</g>
	<g>
		<g>
			<rect x="530.5" y="497.5" class="st2" width="2" height="94"/>
			<path class="st1" d="M532,498v93h-1v-93H532 M533,497h-3v95h3V497L533,497z"/>
		</g>
		<g>
			<rect x="438.5" y="589.5" class="st2" width="94" height="2"/>
			<path class="st1" d="M532,590v1h-93v-1H532 M533,589h-95v3h95V589L533,589z"/>
		</g>
	</g>
	<g>
		<g>
			<rect x="0.5" y="0.5" class="st2" width="2" height="94"/>
			<path class="st1" d="M2,1v93H1V1H2 M3,0H0v95h3V0L3,0z"/>
		</g>
		<g>
			<rect x="0.5" y="0.5" class="st2" width="94" height="2"/>
			<path class="st1" d="M94,1v1H1V1H94 M95,0H0v3h95V0L95,0z"/>
		</g>
	</g>
</g>
<text transform="matrix(0.6728 0 0 1 534 343.75)" class="st3 st4 st5">P O R T F O L I O</text>
<text transform="matrix(1 0 0 1 536.418 391.082)" class="st0 st6 st7">LÆRKE DALBERG</text>
<rect x="775.4" y="468.1" class="st8" width="3.7" height="0"/>
</svg>
