<?xml version="1.0" encoding="utf-8"?>
<!-- Generator: Adobe Illustrator 26.1.0, SVG Export Plug-In . SVG Version: 6.00 Build 0)  -->
<svg version="1.1" id="Layer_1" xmlns="http://www.w3.org/2000/svg" xmlns:xlink="http://www.w3.org/1999/xlink" x="0px" y="0px"
	 viewBox="0 0 447.1 510.9" style="enable-background:new 0 0 447.1 510.9;" xml:space="preserve">
<style type="text/css">
	.st0{fill:#2E3192;}
	.st1{fill:#1B1464;}
	.st2{fill:#0000FF;}
</style>
<g>
	<rect x="21.9" y="24.5" class="st0" width="267" height="377"/>
	<path class="st0" d="M288.4,25v376h-266V25H288.4 M289.4,24h-268v378h268V24L289.4,24z"/>
</g>
<g>
	<rect x="155.9" y="107.5" class="st1" width="267" height="377"/>
	<path class="st1" d="M422.4,108v376h-266V108H422.4 M423.4,107h-268v378h268V107L423.4,107z"/>
</g>
<g>
	<g>
		
			<rect x="0.8" y="1.2" transform="matrix(1 -8.544610e-03 8.544610e-03 1 -0.3431 1.715474e-02)" class="st2" width="2" height="78"/>
		<path class="st0" d="M2,1.7l0.7,77l-1,0L1,1.7L2,1.7 M3,0.7l-3,0l0.7,79l3,0L3,0.7L3,0.7z"/>
	</g>
	<g>
		
			<rect x="1.5" y="0.8" transform="matrix(1 -8.507374e-03 8.507374e-03 1 -1.415453e-02 0.3447)" class="st2" width="78" height="2"/>
		<path class="st0" d="M79,1l0,1L2,2.7l0-1L79,1 M80,0L1,0.7l0,3L80,3L80,0L80,0z"/>
	</g>
</g>
<g>
	<g>
		<rect x="368.4" y="82.7" class="st2" width="78" height="2"/>
		<path class="st0" d="M445.9,83.2v1h-77v-1H445.9 M446.9,82.2h-79v3h79V82.2L446.9,82.2z"/>
	</g>
	<g>
		<rect x="445" y="83" class="st2" width="2" height="78"/>
		<path class="st0" d="M446.5,83.5v77h-1v-77H446.5 M447.5,82.5h-3v79h3V82.5L447.5,82.5z"/>
	</g>
</g>
<g>
	<g>
		<rect x="444.9" y="431.5" class="st2" width="2" height="78"/>
		<path class="st0" d="M446.4,432v77h-1v-77H446.4 M447.4,431h-3v79h3V431L447.4,431z"/>
	</g>
	<g>
		<rect x="368.5" y="508.2" class="st2" width="78" height="2"/>
		<path class="st0" d="M446,508.7v1h-77v-1H446 M447,507.7h-79v3h79V507.7L447,507.7z"/>
	</g>
</g>
</svg>
